<?xml version="1.0" encoding="UTF-8"?>
<svg version="1.1" xmlns="http://www.w3.org/2000/svg" width="512" height="512">
<path d="M0 0 C0.90045044 -0.00705963 1.80090088 -0.01411926 2.7286377 -0.02139282 C40.56271231 -0.2507174 40.56271231 -0.2507174 57.20703125 3.203125 C58.69759033 3.50911621 58.69759033 3.50911621 60.21826172 3.82128906 C116.92522511 15.81380371 171.93488599 46.2140709 207.20703125 93.203125 C207.94300537 94.18104004 207.94300537 94.18104004 208.69384766 95.17871094 C216.17006772 105.16645615 223.11651041 115.31319857 229.20703125 126.203125 C229.60486816 126.90453613 230.00270508 127.60594727 230.41259766 128.32861328 C248.66086947 160.73122155 260.21390279 198.63338691 260.41015625 235.99609375 C260.41721588 236.89654419 260.42427551 237.79699463 260.43154907 238.72473145 C260.66087365 276.55880606 260.66087365 276.55880606 257.20703125 293.203125 C256.90104004 294.69368408 256.90104004 294.69368408 256.58886719 296.21435547 C242.51250897 362.77483535 204.09457829 420.03311569 147.23681641 457.50146484 C142.97655694 460.21784308 138.61596235 462.73729689 134.20703125 465.203125 C133.50562012 465.60096191 132.80420898 465.99879883 132.08154297 466.40869141 C99.6789347 484.65696322 61.77676934 496.20999654 24.4140625 496.40625 C23.06338684 496.41683945 23.06338684 496.41683945 21.6854248 496.42764282 C-16.14864981 496.6569674 -16.14864981 496.6569674 -32.79296875 493.203125 C-34.28352783 492.89713379 -34.28352783 492.89713379 -35.80419922 492.58496094 C-102.29810922 478.52268106 -159.75561962 440.10251905 -197.10742188 383.20068359 C-199.80859884 378.94578085 -202.3224062 374.59485547 -204.79296875 370.203125 C-205.15310059 369.57712402 -205.51323242 368.95112305 -205.88427734 368.30615234 C-224.38936501 335.98545493 -235.69710889 297.67901619 -236.03125 260.33203125 C-236.04104385 259.42023102 -236.05083771 258.50843079 -236.06092834 257.56900024 C-236.23260511 237.44104818 -236.06932869 217.96420382 -231.79296875 198.203125 C-231.57866211 197.18605469 -231.36435547 196.16898438 -231.14355469 195.12109375 C-222.96279434 157.25381879 -206.04522667 122.38317423 -181.79296875 92.203125 C-181.32068848 91.61515137 -180.8484082 91.02717773 -180.36181641 90.42138672 C-169.28155041 76.78092213 -156.86582205 63.76685597 -142.79296875 53.203125 C-142.14102539 52.71247559 -141.48908203 52.22182617 -140.81738281 51.71630859 C-130.82707934 44.23817357 -120.66915508 37.32151018 -109.79296875 31.203125 C-109.16696777 30.84299316 -108.5409668 30.48286133 -107.89599609 30.11181641 C-75.65552438 11.65266164 -37.27934428 0.19581559 0 0 Z " fill="#FE9900" transform="translate(243.79296875,7.796875)"/>
<path d="M0 0 C0.85163727 -0.01283524 1.70327454 -0.02567047 2.58071899 -0.03889465 C3.49944794 -0.04628159 4.41817688 -0.05366852 5.36474609 -0.0612793 C6.31578217 -0.06935104 7.26681824 -0.07742279 8.24667358 -0.08573914 C10.26241233 -0.09957383 12.27817444 -0.11029874 14.29394531 -0.11816406 C17.35576768 -0.13531645 20.41649301 -0.17920107 23.47802734 -0.22338867 C25.44025902 -0.23352145 27.40249985 -0.24203572 29.36474609 -0.2487793 C30.72462143 -0.27504143 30.72462143 -0.27504143 32.11196899 -0.30183411 C41.61407298 -0.26990137 49.82191597 3.490641 56.73193359 10.04418945 C66.9700746 20.7789567 70.4512473 35.59773939 75.07568359 49.36450195 C78.38599609 59.17168945 78.38599609 59.17168945 81.76318359 69.17700195 C100.57318359 69.50700195 119.38318359 69.83700195 138.76318359 70.17700195 C138.76318359 74.13700195 138.76318359 78.09700195 138.76318359 82.17700195 C134.80318359 82.17700195 130.84318359 82.17700195 126.76318359 82.17700195 C126.52857422 83.81926758 126.29396484 85.4615332 126.05224609 87.15356445 C124.37968469 98.00617393 122.22574355 108.77314068 120.13818359 119.55200195 C119.91764313 120.6911908 119.69710266 121.83037964 119.46987915 123.00408936 C118.34071577 128.83015857 117.20710406 134.65534159 116.06933594 140.47973633 C115.23813864 144.73511256 114.41244316 148.99146846 113.59375 153.24926758 C112.72283882 157.77572899 111.83763959 162.29913798 110.94000244 166.82037354 C110.61792914 168.4537998 110.3006986 170.08818964 109.9887085 171.72357178 C105.41002616 195.65965985 105.41002616 195.65965985 95.91162109 202.51293945 C90.44643404 206.05405317 85.77113701 208.41939301 79.14204407 208.45115662 C77.46216652 208.46611931 77.46216652 208.46611931 75.74835205 208.48138428 C74.52903992 208.48204895 73.30972778 208.48271362 72.0534668 208.48339844 C70.76182114 208.49172195 69.47017548 208.50004547 68.13938904 208.50862122 C64.60192767 208.53052873 61.06455272 208.53936048 57.52703118 208.54444766 C55.31327501 208.54809684 53.09954128 208.55433992 50.88579369 208.56144905 C43.15196112 208.58593426 35.4181955 208.59899263 27.68432617 208.60253906 C20.49345126 208.60616968 13.30300438 208.63603306 6.11226016 208.67794365 C-0.07479699 208.71273042 -6.26171293 208.72808898 -12.44886714 208.7287851 C-16.13812012 208.72957532 -19.82693719 208.73819465 -23.51608849 208.76678276 C-27.63773739 208.79800837 -31.75837855 208.78886396 -35.88012695 208.77636719 C-37.69391342 208.79861862 -37.69391342 208.79861862 -39.54434204 208.82131958 C-47.28753088 208.75465243 -52.66106931 207.27334224 -59.23681641 203.17700195 C-60.14431641 202.62012695 -61.05181641 202.06325195 -61.98681641 201.48950195 C-68.63709042 194.65449811 -71.80840268 186.20489862 -73.46337891 176.9621582 C-73.68646729 175.73843506 -73.90955566 174.51471191 -74.1394043 173.25390625 C-74.25655792 172.6022348 -74.37371155 171.95056335 -74.49441528 171.27914429 C-76.8985678 157.93239342 -79.54234806 144.6423879 -82.29931641 131.36450195 C-84.70921324 119.73587266 -87.06899148 108.10353187 -89.23681641 96.42700195 C-89.54824585 94.7586731 -89.54824585 94.7586731 -89.8659668 93.05664062 C-91.23681641 85.56462083 -91.23681641 85.56462083 -91.23681641 82.17700195 C-95.19681641 82.17700195 -99.15681641 82.17700195 -103.23681641 82.17700195 C-103.23681641 78.21700195 -103.23681641 74.25700195 -103.23681641 70.17700195 C-75.02181641 69.68200195 -75.02181641 69.68200195 -46.23681641 69.17700195 C-41.55911659 55.19582554 -41.55911659 55.19582554 -36.90429688 41.20703125 C-26.70311574 10.79024222 -26.70311574 10.79024222 -11.92431641 3.23950195 C-7.89597077 1.37394157 -4.46454731 0.05876857 0 0 Z " fill="#FEFEFD" transform="translate(238.23681640625,151.822998046875)"/>
<path d="M0 0 C2.49341442 0.03441044 4.98329158 0.0205921 7.47680664 0.0012207 C17.62132345 0.01085595 24.57435891 1.09392616 33.18188477 6.72192383 C41.30412202 15.21335368 44.08775324 28.25437392 47.74438477 39.15942383 C48.34727745 40.93632802 48.95078814 42.71302265 49.55493164 44.48950195 C53.93188477 57.40661939 53.93188477 57.40661939 53.93188477 58.59692383 C20.27188477 58.59692383 -13.38811523 58.59692383 -48.06811523 58.59692383 C-31.32896105 8.37946128 -31.32896105 8.37946128 -22.01733398 2.93286133 C-14.96781955 -0.47311992 -7.66509134 -0.1171339 0 0 Z " fill="#FE9901" transform="translate(253.068115234375,163.403076171875)"/>
<path d="M0 0 C3.96 0 7.92 0 12 0 C12 22.77 12 45.54 12 69 C8.04 69 4.08 69 0 69 C0 46.23 0 23.46 0 0 Z " fill="#FE9902" transform="translate(250,257)"/>
<path d="M0 0 C4.29 0 8.58 0 13 0 C13 19.47 13 38.94 13 59 C8.71 59 4.42 59 0 59 C0 39.53 0 20.06 0 0 Z " fill="#FE9E0E" transform="translate(293,262)"/>
<path d="M0 0 C3.96 0 7.92 0 12 0 C12 19.47 12 38.94 12 59 C8.04 59 4.08 59 0 59 C0 39.53 0 20.06 0 0 Z " fill="#FE9901" transform="translate(206,262)"/>
</svg>
