<?xml version="1.0" encoding="UTF-8"?>
<svg version="1.1" xmlns="http://www.w3.org/2000/svg" width="100" height="100">
<path d="M0 0 C9.40707465 5.68464327 15.68680199 13.83643636 18.546875 24.5390625 C19.81816587 35.18018906 19.08411233 45.14253855 13.546875 54.5390625 C12.556875 55.5290625 12.556875 55.5290625 11.546875 56.5390625 C13.031875 57.0340625 13.031875 57.0340625 14.546875 57.5390625 C14.546875 58.8590625 14.546875 60.1790625 14.546875 61.5390625 C13.226875 61.5390625 11.906875 61.5390625 10.546875 61.5390625 C10.216875 60.8790625 9.886875 60.2190625 9.546875 59.5390625 C9.01320313 59.99796875 8.47953125 60.456875 7.9296875 60.9296875 C-2.56169886 69.56965274 -11.91574525 71.83539098 -25.31445312 70.80957031 C-34.8744138 69.60038807 -42.8797787 64.22976046 -48.828125 56.828125 C-51.453125 53.09114583 -51.453125 53.09114583 -51.453125 50.5390625 C-52.2575 50.5596875 -53.061875 50.5803125 -53.890625 50.6015625 C-56.453125 50.5390625 -56.453125 50.5390625 -57.453125 49.5390625 C-57.578125 46.5390625 -57.578125 46.5390625 -57.453125 43.5390625 C-56.958125 43.0440625 -56.958125 43.0440625 -56.453125 42.5390625 C-56.37687052 40.5797461 -56.30610979 38.62003955 -56.26513672 36.65966797 C-55.96707395 24.96481162 -53.82146128 15.03480794 -45.4765625 6.2890625 C-32.87910695 -4.60603419 -15.10756629 -7.47031593 0 0 Z " fill="#FBDEA0" transform="translate(69.453125,16.4609375)"/>
<path d="M0 0 C4.0047073 1.43758723 5.0418034 3.1444832 7.0625 6.875 C9.44425395 12.85472268 10.57658386 19.88897497 8.1875 26 C6.4375 28.875 6.4375 28.875 3.4375 29.875 C3.4375 30.865 3.4375 31.855 3.4375 32.875 C6.4075 33.865 9.3775 34.855 12.4375 35.875 C12.9325 38.35 12.9325 38.35 13.4375 40.875 C4.1975 40.875 -5.0425 40.875 -14.5625 40.875 C-15.5625 32.875 -15.5625 32.875 -14.5625 30.875 C-17.8625 30.875 -21.1625 30.875 -24.5625 30.875 C-24.5625 32.525 -24.5625 34.175 -24.5625 35.875 C-27.0375 36.37 -27.0375 36.37 -29.5625 36.875 C-30.6875 33.125 -30.6875 33.125 -29.5625 30.875 C-30.5525 30.875 -31.5425 30.875 -32.5625 30.875 C-32.89997548 28.00043208 -33.23260463 25.12543941 -33.5625 22.25 C-33.65789063 21.44175781 -33.75328125 20.63351563 -33.8515625 19.80078125 C-34.34503617 15.46526261 -34.67570717 11.24762689 -34.5625 6.875 C-34.2325 7.865 -33.9025 8.855 -33.5625 9.875 C-21.1875 9.38 -21.1875 9.38 -8.5625 8.875 C-7.9025 6.895 -7.2425 4.915 -6.5625 2.875 C-4.28358109 0.43891427 -3.3513156 -0.16347881 0 0 Z " fill="#735A54" transform="translate(62.5625,30.125)"/>
<path d="M0 0 C4.0047073 1.43758723 5.0418034 3.1444832 7.0625 6.875 C9.03238367 11.67079009 9.16873643 16.74995668 9.4375 21.875 C8.4475 21.545 7.4575 21.215 6.4375 20.875 C5.25 17.8125 5.25 17.8125 4.4375 14.875 C0.8075 14.875 -2.8225 14.875 -6.5625 14.875 C-6.8925 15.535 -7.2225 16.195 -7.5625 16.875 C-6.799375 16.813125 -6.03625 16.75125 -5.25 16.6875 C-2.5625 16.875 -2.5625 16.875 -0.75 18.375 C-0.358125 18.87 0.03375 19.365 0.4375 19.875 C-1.58072917 19.58203125 -3.59895833 19.2890625 -5.6171875 18.99609375 C-7.64390667 18.7065703 -7.64390667 18.7065703 -9.5625 19.875 C-9.5625 16.905 -9.5625 13.935 -9.5625 10.875 C-17.1525 10.875 -24.7425 10.875 -32.5625 10.875 C-32.2325 15.495 -31.9025 20.115 -31.5625 24.875 C-26.2825 24.875 -21.0025 24.875 -15.5625 24.875 C-15.5625 25.205 -15.5625 25.535 -15.5625 25.875 C-16.45453125 25.93558594 -17.3465625 25.99617188 -18.265625 26.05859375 C-20.02132812 26.18427734 -20.02132812 26.18427734 -21.8125 26.3125 C-22.97265625 26.39371094 -24.1328125 26.47492187 -25.328125 26.55859375 C-27.87227376 26.80747787 -30.12203248 27.15614942 -32.5625 27.875 C-32.9008344 25.50061751 -33.23329002 23.12565041 -33.5625 20.75 C-33.65789063 20.08484375 -33.75328125 19.4196875 -33.8515625 18.734375 C-34.39861453 14.74871019 -34.66272182 10.89640062 -34.5625 6.875 C-34.2325 7.865 -33.9025 8.855 -33.5625 9.875 C-21.1875 9.38 -21.1875 9.38 -8.5625 8.875 C-7.9025 6.895 -7.2425 4.915 -6.5625 2.875 C-4.28358109 0.43891427 -3.3513156 -0.16347881 0 0 Z " fill="#553431" transform="translate(62.5625,30.125)"/>
<path d="M0 0 C6.6 0 13.2 0 20 0 C20.33 2.31 20.66 4.62 21 7 C22.82339052 9.70567626 24.07457436 11.53728718 27 13 C27 13.99 27 14.98 27 16 C25.35 16.33 23.7 16.66 22 17 C22 16.01 22 15.02 22 14 C14.74 13.67 7.48 13.34 0 13 C0.33 12.01 0.66 11.02 1 10 C1.66 9.67 2.32 9.34 3 9 C2.01 8.67 1.02 8.34 0 8 C0 5.36 0 2.72 0 0 Z " fill="#7D79A1" transform="translate(31,47)"/>
<path d="M0 0 C1.79133978 -0.05391993 3.58313899 -0.09275571 5.375 -0.125 C6.37273438 -0.14820313 7.37046875 -0.17140625 8.3984375 -0.1953125 C11 0 11 0 13 2 C15.15704262 5.35539963 15.41127154 8.05179323 15 12 C14 14.3125 14 14.3125 12 16 C5.6470311 17.77049953 5.6470311 17.77049953 2.1796875 16.1484375 C-0.67660662 14.00966654 -1.93757199 12.19898928 -3 8.8125 C-3 6 -3 6 -1 4 C2.125 4.375 2.125 4.375 5 5 C3.02 4.34 1.04 3.68 -1 3 C-0.67 2.01 -0.34 1.02 0 0 Z " fill="#CA9D84" transform="translate(56,44)"/>
<path d="M0 0 C0.33 1.65 0.66 3.3 1 5 C-6.26 5 -13.52 5 -21 5 C-21 3.35 -21 1.7 -21 0 C-13.78194245 -0.7938642 -7.19172157 -1.07875823 0 0 Z " fill="#A1A0C7" transform="translate(74,65)"/>
<path d="M0 0 C1.28293945 -0.04350586 1.28293945 -0.04350586 2.59179688 -0.08789062 C6.78912653 -0.13015653 9.10680993 -0.03007062 12.79296875 2.14453125 C14.6875 4.3125 14.6875 4.3125 14.6875 7.3125 C13.0375 7.6425 11.3875 7.9725 9.6875 8.3125 C9.6875 7.3225 9.6875 6.3325 9.6875 5.3125 C2.4275 4.9825 -4.8325 4.6525 -12.3125 4.3125 C-11.9825 3.3225 -11.6525 2.3325 -11.3125 1.3125 C-7.81206737 -0.43771631 -3.85684036 0.04301309 0 0 Z " fill="#E3C791" transform="translate(43.3125,55.6875)"/>
<path d="M0 0 C7.26 0 14.52 0 22 0 C22 1.65 22 3.3 22 5 C14.74 5 7.48 5 0 5 C0 3.35 0 1.7 0 0 Z " fill="#807DA7" transform="translate(30,41)"/>
<path d="M0 0 C1.79133978 -0.05391993 3.58313899 -0.09275571 5.375 -0.125 C6.37273438 -0.14820313 7.37046875 -0.17140625 8.3984375 -0.1953125 C11 0 11 0 13 2 C15.15704262 5.35539963 15.41127154 8.05179323 15 12 C13.5 14.375 13.5 14.375 12 16 C11.34 15.67 10.68 15.34 10 15 C10.66 14.34 11.32 13.68 12 13 C12 12.01 12 11.02 12 10 C11.236875 9.938125 10.47375 9.87625 9.6875 9.8125 C6.13518407 8.73854402 5.85627437 7.09379061 4 4 C1.40877257 3.11341534 1.40877257 3.11341534 -1 3 C-0.67 2.01 -0.34 1.02 0 0 Z " fill="#B18A73" transform="translate(56,44)"/>
<path d="M0 0 C1.93833996 0.08715017 3.8757429 0.19532964 5.8125 0.3125 C7.43091797 0.39951172 7.43091797 0.39951172 9.08203125 0.48828125 C12 1 12 1 13.875 2.375 C15.42996545 4.62106121 15.21609829 6.33478776 15 9 C7.25 9.125 7.25 9.125 5 8 C4.375 5.9375 4.375 5.9375 4 4 C2.68 3.67 1.36 3.34 0 3 C0 2.01 0 1.02 0 0 Z " fill="#816147" transform="translate(22,31)"/>
<path d="M0 0 C0.33 0.66 0.66 1.32 1 2 C8.59 2 16.18 2 24 2 C24 2.33 24 2.66 24 3 C22.35 3 20.7 3 19 3 C18.67 4.65 18.34 6.3 18 8 C17.67 7.01 17.34 6.02 17 5 C17.33 4.34 17.66 3.68 18 3 C14.7 3 11.4 3 8 3 C8 4.65 8 6.3 8 8 C6.35 8.33 4.7 8.66 3 9 C1.875 5.25 1.875 5.25 3 3 C2.01 3 1.02 3 0 3 C0 2.01 0 1.02 0 0 Z " fill="#5A3E34" transform="translate(30,58)"/>
<path d="M0 0 C2.59926216 0.93306847 3.81508096 1.65484763 5.4375 3.875 C5.4375 4.865 5.4375 5.855 5.4375 6.875 C1.4775 6.875 -2.4825 6.875 -6.5625 6.875 C-6.5625 2.875 -6.5625 2.875 -4.875 1.0625 C-2.5625 -0.125 -2.5625 -0.125 0 0 Z " fill="#402825" transform="translate(62.5625,30.125)"/>
<path d="M0 0 C3 0.125 3 0.125 4 1.125 C4.125 4.125 4.125 4.125 4 7.125 C3 8.125 3 8.125 0 8.25 C-3 8.125 -3 8.125 -4 7.125 C-4.125 4.125 -4.125 4.125 -4 1.125 C-3 0.125 -3 0.125 0 0 Z " fill="#F0BB19" transform="translate(84,10.875)"/>
<path d="M0 0 C0.33 0.66 0.66 1.32 1 2 C3.28453433 3.14226716 5.62508799 4.06253473 8 5 C8 5.33 8 5.66 8 6 C0.74 5.67 -6.52 5.34 -14 5 C-14 4.01 -14 3.02 -14 2 C-9.38 2 -4.76 2 0 2 C0 1.34 0 0.68 0 0 Z " fill="#736985" transform="translate(45,50)"/>
<path d="M0 0 C2.5625 0.1875 2.5625 0.1875 4.5625 2.1875 C4.00694444 6.74305556 4.00694444 6.74305556 2.5625 8.1875 C0.0625 8.3125 0.0625 8.3125 -2.4375 8.1875 C-3.4375 7.1875 -3.4375 7.1875 -3.5625 4.1875 C-3.39891479 0.26145498 -3.39891479 0.26145498 0 0 Z " fill="#FACD5A" transform="translate(15.4375,58.8125)"/>
<path d="M0 0 C7.26 0 14.52 0 22 0 C22 1.65 22 3.3 22 5 C19.69 5 17.38 5 15 5 C15 3.68 15 2.36 15 1 C14.34 1 13.68 1 13 1 C12.67 1.99 12.34 2.98 12 4 C12 3.01 12 2.02 12 1 C8.04 1 4.08 1 0 1 C0 0.67 0 0.34 0 0 Z " fill="#6C607B" transform="translate(30,41)"/>
<path d="M0 0 C2.31 0 4.62 0 7 0 C7 0.99 7 1.98 7 3 C7.66 3.33 8.32 3.66 9 4 C5.98509443 5.00496852 3.95818308 5.10335303 0.8125 5.0625 C-0.53908203 5.04896484 -0.53908203 5.04896484 -1.91796875 5.03515625 C-2.60503906 5.02355469 -3.29210938 5.01195313 -4 5 C-4 4.34 -4 3.68 -4 3 C-2.68 3 -1.36 3 0 3 C0 2.01 0 1.02 0 0 Z " fill="#9F7A65" transform="translate(59,60)"/>
<path d="M0 0 C2.625 0.375 2.625 0.375 5 1 C5.33 2.32 5.66 3.64 6 5 C5.21625 5.12375 4.4325 5.2475 3.625 5.375 C0.85942178 5.79117993 0.85942178 5.79117993 -1 8 C-1.625 5.125 -1.625 5.125 -2 2 C-1.34 1.34 -0.68 0.68 0 0 Z " fill="#B38C75" transform="translate(55,48)"/>
<path d="M0 0 C3.63 0 7.26 0 11 0 C11.33 0.66 11.66 1.32 12 2 C11.360625 2.12375 10.72125 2.2475 10.0625 2.375 C9.381875 2.58125 8.70125 2.7875 8 3 C7.67 3.66 7.34 4.32 7 5 C4.36 4.34 1.72 3.68 -1 3 C-0.67 2.01 -0.34 1.02 0 0 Z " fill="#CFA588" transform="translate(56,44)"/>
<path d="M0 0 C2.875 -0.125 2.875 -0.125 6 0 C8 2 8 2 8 6 C6.02 6 4.04 6 2 6 C1.34 4.02 0.68 2.04 0 0 Z " fill="#F3D79C" transform="translate(27,33)"/>
<path d="M0 0 C0.7425 0.37125 1.485 0.7425 2.25 1.125 C4.94283647 2.29515863 4.94283647 2.29515863 7.3125 1.125 C7.869375 0.75375 8.42625 0.3825 9 0 C9.36923077 5.41538462 9.36923077 5.41538462 7.5 8.375 C7.005 8.91125 6.51 9.4475 6 10 C5.34 9.67 4.68 9.34 4 9 C4.66 8.34 5.32 7.68 6 7 C6 6.01 6 5.02 6 4 C4.35 3.67 2.7 3.34 1 3 C0.67 2.01 0.34 1.02 0 0 Z " fill="#997662" transform="translate(62,50)"/>
<path d="M0 0 C0 1.65 0 3.3 0 5 C-1.65 5.33 -3.3 5.66 -5 6 C-5.33 4.68 -5.66 3.36 -6 2 C-1.125 0 -1.125 0 0 0 Z " fill="#947C54" transform="translate(38,61)"/>
<path d="M0 0 C1.32 0 2.64 0 4 0 C4 1.65 4 3.3 4 5 C1.69 5 -0.62 5 -3 5 C-1.125 1.125 -1.125 1.125 0 0 Z " fill="#787296" transform="translate(48,41)"/>
<path d="M0 0 C2.97 0.495 2.97 0.495 6 1 C6.33 2.65 6.66 4.3 7 6 C5.68 6 4.36 6 3 6 C2.814375 5.071875 2.814375 5.071875 2.625 4.125 C2.12802644 1.80879168 2.12802644 1.80879168 0 0 Z " fill="#A07B65" transform="translate(68,64)"/>
<path d="M0 0 C1.98 0.495 1.98 0.495 4 1 C3.67 2.32 3.34 3.64 3 5 C1.68 4.67 0.36 4.34 -1 4 C-0.67 2.68 -0.34 1.36 0 0 Z " fill="#FEFBF4" transform="translate(18,51)"/>
<path d="M0 0 C1.98 0 3.96 0 6 0 C6 1.32 6 2.64 6 4 C4.02 4 2.04 4 0 4 C0 2.68 0 1.36 0 0 Z " fill="#7C78A0" transform="translate(46,50)"/>
<path d="M0 0 C1.32 0 2.64 0 4 0 C4 1.32 4 2.64 4 4 C2.68 4 1.36 4 0 4 C0 2.68 0 1.36 0 0 Z " fill="#ED3D53" transform="translate(24,85)"/>
<path d="M0 0 C1.32 0 2.64 0 4 0 C4 1.32 4 2.64 4 4 C2.68 4 1.36 4 0 4 C0 2.68 0 1.36 0 0 Z " fill="#ED3D53" transform="translate(12,27)"/>
<path d="M0 0 C1.32 0 2.64 0 4 0 C4 1.32 4 2.64 4 4 C2.68 4 1.36 4 0 4 C0 2.68 0 1.36 0 0 Z " fill="#ED3D53" transform="translate(86,22)"/>
<path d="M0 0 C0.66 0 1.32 0 2 0 C2 0.66 2 1.32 2 2 C1.34 2 0.68 2 0 2 C0 1.34 0 0.68 0 0 Z " fill="#F0BB18" transform="translate(77,12)"/>
</svg>
